<svg width="61" height="61" viewBox="0 0 61 61" fill="none" xmlns="http://www.w3.org/2000/svg">
<g clip-path="url(#clip0_4101_5194)">
<path d="M38.3966 39.9889C37.51 39.9889 36.7407 39.3299 36.6257 38.4275C36.5015 37.4484 37.194 36.5539 38.1727 36.4291C43.8198 35.7096 48.8768 34.1794 52.4119 32.1196C55.645 30.2362 57.4251 28.0218 57.4251 25.8847C57.4251 23.5294 55.342 21.6022 53.594 20.3996C52.7809 19.8402 52.5752 18.7279 53.1346 17.9144C53.694 17.1014 54.8068 16.8957 55.6198 17.4551C59.1392 19.876 60.9993 22.7908 60.9993 25.8852C60.9993 29.3971 58.6524 32.6208 54.2116 35.208C50.2143 37.5368 44.8246 39.1852 38.6246 39.975C38.5478 39.9843 38.4715 39.9889 38.3966 39.9889Z" fill="white"/>
<path d="M30.0644 37.4287L25.2988 32.6631C24.6007 31.965 23.4693 31.965 22.7712 32.6631C22.0736 33.3607 22.0736 34.4925 22.7712 35.1902L24.1637 36.5826C18.8247 36.0311 13.9744 34.7881 10.2186 32.9819C5.99612 30.9514 3.57422 28.3643 3.57422 25.8846C3.57422 23.7815 5.30827 21.5956 8.45666 19.7293C9.306 19.2263 9.58617 18.1298 9.08308 17.2809C8.57952 16.4316 7.48306 16.1514 6.63418 16.6545C1.15092 19.9048 0 23.4679 0 25.8846C0 29.8498 3.07904 33.5143 8.66981 36.2033C13.0091 38.2897 18.6222 39.6873 24.7375 40.2281L22.7712 42.1943C22.0736 42.892 22.0736 44.0238 22.7712 44.7219C23.1203 45.0705 23.5777 45.245 24.0352 45.245C24.4922 45.245 24.9497 45.0705 25.2988 44.7219L30.0644 39.9563C30.762 39.2582 30.762 38.1263 30.0644 37.4287Z" fill="white"/>
<path d="M18.7164 22.3059V21.8758C18.7164 20.3591 17.7879 20.065 16.543 20.065C15.7732 20.065 15.5243 19.386 15.5243 18.707C15.5243 18.0275 15.7732 17.3485 16.543 17.3485C17.4031 17.3485 18.3087 17.2354 18.3087 15.4018C18.3087 14.0889 17.5618 13.772 16.6333 13.772C15.5243 13.772 14.9583 14.0437 14.9583 14.9266C14.9583 15.6959 14.6186 16.2167 13.3057 16.2167C11.6759 16.2167 11.4725 15.8769 11.4725 14.7902C11.4725 13.025 12.7398 10.7385 16.6333 10.7385C19.5085 10.7385 21.6814 11.7796 21.6814 14.8358C21.6814 16.488 21.0704 18.0275 19.9385 18.5483C21.2742 19.0463 22.2473 20.0422 22.2473 21.8758V22.3059C22.2473 26.0183 19.6895 27.4219 16.5202 27.4219C12.6267 27.4219 11.1328 25.0452 11.1328 23.1436C11.1328 22.1248 11.5628 21.853 12.8078 21.853C14.2565 21.853 14.6186 22.17 14.6186 23.0305C14.6186 24.0944 15.615 24.3434 16.6333 24.3434C18.1728 24.3434 18.7164 23.7774 18.7164 22.3059Z" fill="white"/>
<path d="M35.988 21.8758V22.0797C35.988 25.9732 33.5657 27.4219 30.4419 27.4219C27.3182 27.4219 24.873 25.9732 24.873 22.0797V16.0808C24.873 12.1873 27.3857 10.7385 30.6458 10.7385C34.4713 10.7385 35.988 13.1153 35.988 14.9941C35.988 16.0808 35.4673 16.42 34.3354 16.42C33.3623 16.42 32.5018 16.1711 32.5018 15.13C32.5018 14.2699 31.5966 13.8171 30.5327 13.8171C29.197 13.8171 28.4044 14.5189 28.4044 16.0808V18.1178C29.1291 17.3257 30.1478 17.1219 31.2345 17.1219C33.8146 17.1219 35.988 18.2537 35.988 21.8758ZM28.4044 22.3287C28.4044 23.8905 29.1742 24.5695 30.4419 24.5695C31.7097 24.5695 32.4566 23.8905 32.4566 22.3287V22.1248C32.4566 20.4722 31.7097 19.8384 30.4191 19.8384C29.197 19.8384 28.4044 20.4271 28.4044 21.921V22.3287Z" fill="white"/>
<path d="M38.7266 22.0797V16.0808C38.7266 12.1873 41.1485 10.7385 44.2727 10.7385C47.3964 10.7385 49.8411 12.1873 49.8411 16.0808V22.0797C49.8411 25.9732 47.3964 27.4219 44.2727 27.4219C41.1485 27.4219 38.7266 25.9732 38.7266 22.0797ZM46.3097 16.0808C46.3097 14.5189 45.5404 13.8171 44.2727 13.8171C43.0049 13.8171 42.258 14.5189 42.258 16.0808V22.0797C42.258 23.6415 43.0049 24.3434 44.2727 24.3434C45.5404 24.3434 46.3097 23.6415 46.3097 22.0797V16.0808Z" fill="white"/>
<path d="M54.1309 10.7227C51.1742 10.7227 48.7695 8.3175 48.7695 5.36133C48.7695 2.40515 51.1742 0 54.1309 0C57.087 0 59.4922 2.40515 59.4922 5.36133C59.4922 8.3175 57.087 10.7227 54.1309 10.7227ZM54.1309 3.57422C53.1452 3.57422 52.3438 4.37609 52.3438 5.36133C52.3438 6.34703 53.1452 7.14844 54.1309 7.14844C55.1161 7.14844 55.918 6.34703 55.918 5.36133C55.918 4.37609 55.1161 3.57422 54.1309 3.57422Z" fill="white"/>
</g>
<defs>
<clipPath id="clip0_4101_5194">
<rect width="61" height="61" fill="white"/>
</clipPath>
</defs>
</svg>
