<svg width="18" height="20" viewBox="0 0 18 20" fill="none" xmlns="http://www.w3.org/2000/svg">
<path d="M0.46967 13.4697C0.176777 13.7626 0.176777 14.2374 0.46967 14.5303C0.762563 14.8232 1.23744 14.8232 1.53033 14.5303L0.46967 13.4697ZM17 14L17.5303 14.5303C17.671 14.3897 17.75 14.1989 17.75 14H17ZM17 2H17.75C17.75 1.69665 17.5673 1.42318 17.287 1.30709C17.0068 1.191 16.6842 1.25517 16.4697 1.46967L17 2ZM1 2L0.46967 1.46967C0.329018 1.61032 0.25 1.80109 0.25 2H1ZM0.25 19C0.25 19.4142 0.585786 19.75 1 19.75C1.41421 19.75 1.75 19.4142 1.75 19H0.25ZM1 14C1.53033 14.5303 1.52995 14.5307 1.52956 14.5311C1.52944 14.5312 1.52906 14.5316 1.52882 14.5318C1.52833 14.5323 1.52785 14.5328 1.52739 14.5333C1.52647 14.5342 1.5256 14.535 1.52479 14.5358C1.52317 14.5374 1.52178 14.5387 1.52062 14.5398C1.5183 14.5421 1.5169 14.5433 1.51647 14.5437C1.51559 14.5445 1.51856 14.5418 1.52561 14.536C1.53968 14.5244 1.57021 14.5004 1.61915 14.4678C1.71676 14.4027 1.88946 14.302 2.15354 14.1964C2.68039 13.9856 3.58454 13.75 5 13.75V12.25C3.41546 12.25 2.31961 12.5144 1.59646 12.8036C1.23554 12.948 0.970738 13.0973 0.7871 13.2197C0.695416 13.2808 0.624381 13.335 0.572048 13.3781C0.545893 13.3996 0.524446 13.4184 0.507458 13.4338C0.498965 13.4415 0.49159 13.4484 0.485302 13.4544C0.482158 13.4574 0.479286 13.4602 0.476682 13.4627C0.47538 13.464 0.474145 13.4652 0.472976 13.4664C0.472392 13.467 0.471824 13.4675 0.471273 13.4681C0.470998 13.4683 0.470597 13.4687 0.470459 13.4689C0.470062 13.4693 0.46967 13.4697 1 14ZM5 13.75C6.33552 13.75 7.45788 14.1909 8.72146 14.6964C9.95788 15.1909 11.3355 15.75 13 15.75V14.25C11.6645 14.25 10.5421 13.8091 9.27854 13.3036C8.04212 12.8091 6.66448 12.25 5 12.25V13.75ZM13 15.75C14.5845 15.75 15.6804 15.4856 16.4035 15.1964C16.7645 15.052 17.0293 14.9027 17.2129 14.7803C17.3046 14.7192 17.3756 14.665 17.428 14.6219C17.4541 14.6004 17.4756 14.5816 17.4925 14.5662C17.501 14.5585 17.5084 14.5516 17.5147 14.5456C17.5178 14.5426 17.5207 14.5398 17.5233 14.5373C17.5246 14.536 17.5259 14.5348 17.527 14.5336C17.5276 14.533 17.5282 14.5325 17.5287 14.5319C17.529 14.5317 17.5294 14.5313 17.5295 14.5311C17.5299 14.5307 17.5303 14.5303 17 14C16.4697 13.4697 16.4701 13.4693 16.4704 13.4689C16.4706 13.4688 16.4709 13.4684 16.4712 13.4682C16.4717 13.4677 16.4721 13.4672 16.4726 13.4667C16.4735 13.4658 16.4744 13.465 16.4752 13.4642C16.4768 13.4626 16.4782 13.4613 16.4794 13.4602C16.4817 13.4579 16.4831 13.4567 16.4835 13.4563C16.4844 13.4555 16.4814 13.4582 16.4744 13.464C16.4603 13.4756 16.4298 13.4996 16.3808 13.5322C16.2832 13.5973 16.1105 13.698 15.8465 13.8036C15.3196 14.0144 14.4155 14.25 13 14.25V15.75ZM17.75 14V2H16.25V14H17.75ZM17 2C16.4697 1.46967 16.4701 1.46929 16.4704 1.4689C16.4706 1.46878 16.4709 1.46841 16.4712 1.46816C16.4717 1.46768 16.4721 1.4672 16.4726 1.46675C16.4735 1.46584 16.4744 1.46498 16.4752 1.46419C16.4768 1.46261 16.4782 1.46127 16.4794 1.46016C16.4817 1.45795 16.4831 1.45667 16.4835 1.45628C16.4844 1.45548 16.4814 1.45822 16.4744 1.46402C16.4603 1.47561 16.4298 1.49958 16.3808 1.53221C16.2832 1.59729 16.1105 1.69801 15.8465 1.80364C15.3196 2.01438 14.4155 2.25 13 2.25V3.75C14.5845 3.75 15.6804 3.48562 16.4035 3.19636C16.7645 3.05199 17.0293 2.90271 17.2129 2.78029C17.3046 2.71917 17.3756 2.66501 17.428 2.62192C17.4541 2.60038 17.4756 2.58163 17.4925 2.56619C17.501 2.55846 17.5084 2.55157 17.5147 2.54557C17.5178 2.54258 17.5207 2.5398 17.5233 2.53726C17.5246 2.53599 17.5259 2.53477 17.527 2.53362C17.5276 2.53304 17.5282 2.53248 17.5287 2.53193C17.529 2.53165 17.5294 2.53126 17.5295 2.53112C17.5299 2.53072 17.5303 2.53033 17 2ZM13 2.25C11.6645 2.25 10.5421 1.80907 9.27854 1.30364C8.04212 0.809071 6.66448 0.25 5 0.25V1.75C6.33552 1.75 7.45788 2.19093 8.72146 2.69636C9.95788 3.19093 11.3355 3.75 13 3.75V2.25ZM5 0.25C3.41546 0.25 2.31961 0.514379 1.59646 0.803642C1.23554 0.948009 0.970738 1.09729 0.7871 1.21971C0.695416 1.28083 0.624381 1.33499 0.572048 1.37808C0.545893 1.39962 0.524446 1.41837 0.507458 1.43381C0.498965 1.44154 0.49159 1.44843 0.485302 1.45443C0.482158 1.45742 0.479286 1.4602 0.476682 1.46274C0.47538 1.46401 0.474145 1.46523 0.472976 1.46638C0.472392 1.46696 0.471824 1.46752 0.471273 1.46807C0.470998 1.46835 0.470597 1.46874 0.470459 1.46888C0.470062 1.46928 0.46967 1.46967 1 2C1.53033 2.53033 1.52995 2.53071 1.52956 2.5311C1.52944 2.53122 1.52906 2.53159 1.52882 2.53184C1.52833 2.53232 1.52785 2.5328 1.52739 2.53325C1.52647 2.53416 1.5256 2.53502 1.52479 2.53581C1.52317 2.53739 1.52178 2.53873 1.52062 2.53984C1.5183 2.54205 1.5169 2.54333 1.51647 2.54372C1.51559 2.54452 1.51856 2.54178 1.52561 2.53598C1.53968 2.52439 1.57021 2.50042 1.61915 2.46779C1.71676 2.40271 1.88946 2.30199 2.15354 2.19636C2.68039 1.98562 3.58454 1.75 5 1.75V0.25ZM0.25 2V19H1.75V2H0.25Z" fill="#FF7B42"/>
</svg>
