<svg width="40" height="40" viewBox="0 0 40 40" fill="none" xmlns="http://www.w3.org/2000/svg">
<circle cx="20" cy="20" r="20" fill="#FF7B42"/>
<path d="M22.2495 27.4993V22.9992C22.2495 22.8003 22.1704 22.6095 22.0298 22.4689C21.8891 22.3282 21.6984 22.2492 21.4995 22.2492H18.4995C18.3005 22.2492 18.1098 22.3282 17.9691 22.4689C17.8285 22.6095 17.7495 22.8003 17.7495 22.9992V27.4993C17.7495 27.6982 17.6704 27.8889 17.5298 28.0296C17.3892 28.1702 17.1984 28.2492 16.9995 28.2493L12.5001 28.2499C12.4016 28.2499 12.3041 28.2305 12.2131 28.1928C12.122 28.1551 12.0394 28.0999 11.9697 28.0302C11.9 27.9606 11.8448 27.8779 11.8071 27.7869C11.7694 27.6959 11.75 27.5984 11.75 27.4999V18.8317C11.75 18.7272 11.7718 18.6239 11.8141 18.5283C11.8564 18.4328 11.9181 18.3471 11.9954 18.2768L19.4949 11.4579C19.633 11.3324 19.8129 11.2628 19.9995 11.2628C20.186 11.2628 20.3659 11.3324 20.504 11.4579L28.0045 18.2768C28.0818 18.3471 28.1436 18.4328 28.1859 18.5283C28.2282 18.6239 28.25 18.7272 28.25 18.8317V27.4999C28.25 27.5984 28.2306 27.6959 28.1929 27.7869C28.1552 27.8779 28.1 27.9606 28.0303 28.0302C27.9606 28.0999 27.878 28.1551 27.7869 28.1928C27.6959 28.2305 27.5984 28.2499 27.4999 28.2499L22.9994 28.2493C22.8005 28.2493 22.6097 28.1702 22.4691 28.0296C22.3285 27.8889 22.2494 27.6982 22.2495 27.4993V27.4993Z" stroke="white" stroke-width="1.5" stroke-linecap="round" stroke-linejoin="round"/>
</svg>
