<svg width="20" height="20" viewBox="0 0 20 20" fill="none" xmlns="http://www.w3.org/2000/svg">
<path d="M9.8129 0.264648C7.1453 0.264648 6.81285 0.277529 5.76887 0.321693C4.7206 0.373217 4.01153 0.535764 3.38588 0.778664C2.73107 1.02587 2.13805 1.41291 1.64816 1.91281C1.14687 2.40155 0.759612 2.9949 0.514015 3.65052C0.271115 4.27617 0.108569 4.98525 0.0570446 6.03352C0.00981413 7.07811 0 7.40995 0 10.0776C0 12.7452 0.012881 13.0776 0.0570446 14.1216C0.108569 15.1668 0.271115 15.8789 0.514015 16.5046C0.761221 17.1594 1.14826 17.7524 1.64816 18.2423C2.1369 18.7436 2.73025 19.1308 3.38588 19.3764C4.01153 19.6163 4.72366 19.7819 5.76887 19.8334C6.81346 19.8806 7.1453 19.8905 9.8129 19.8905C12.4805 19.8905 12.813 19.8776 13.8569 19.8334C14.9021 19.7819 15.6143 19.6157 16.2399 19.3764C16.8947 19.1292 17.4878 18.7422 17.9776 18.2423C18.4796 17.7541 18.8669 17.1606 19.1118 16.5046C19.3516 15.8789 19.5172 15.1668 19.5688 14.1216C19.616 13.077 19.6258 12.7452 19.6258 10.0776C19.6258 7.40995 19.6129 7.0775 19.5688 6.03352C19.5172 4.98831 19.351 4.27249 19.1118 3.65052C18.8646 2.99571 18.4775 2.4027 17.9776 1.91281C17.4894 1.41087 16.8959 1.02351 16.2399 0.778664C15.6143 0.535764 14.9021 0.373217 13.8569 0.321693C12.8123 0.274463 12.4805 0.264648 9.8129 0.264648ZM9.8129 2.03119C12.4327 2.03119 12.7455 2.04407 13.7809 2.08824C14.7359 2.13301 15.2561 2.29249 15.6014 2.42744C16.0283 2.58503 16.4147 2.83586 16.7325 3.16166C17.0577 3.47806 17.3076 3.86358 17.4636 4.28967C17.5986 4.635 17.7581 5.15515 17.8028 6.11019C17.847 7.14558 17.8599 7.45902 17.8599 10.0782C17.8599 12.6973 17.847 13.0108 17.7992 14.0461C17.7476 15.0012 17.5882 15.5213 17.4538 15.8667C17.268 16.3273 17.0606 16.6493 16.7184 16.9977C16.3996 17.3215 16.0134 17.5711 15.5873 17.7289C15.2463 17.8638 14.7187 18.0233 13.76 18.0681C12.7191 18.1123 12.4124 18.1251 9.78592 18.1251C7.15941 18.1251 6.85333 18.1123 5.81119 18.0644C4.85615 18.0129 4.32926 17.8534 3.98392 17.7191C3.51775 17.5332 3.19818 17.3259 2.85591 16.9836C2.51058 16.6383 2.29099 16.3095 2.12169 15.8526C1.98429 15.5115 1.82727 14.984 1.77636 14.0253C1.74139 12.9966 1.72483 12.6777 1.72483 10.0634C1.72483 7.45043 1.74139 7.13086 1.77636 6.08934C1.82727 5.13062 1.98429 4.60433 2.12169 4.26207C2.29099 3.79528 2.51119 3.47632 2.85591 3.13099C3.19757 2.78933 3.51775 2.56852 3.98392 2.39554C4.32926 2.26121 4.84327 2.10173 5.80199 2.05389C6.8429 2.01647 7.14959 2.00298 9.77242 2.00298L9.8129 2.03119ZM9.8129 5.04106C9.15127 5.04082 8.49608 5.17096 7.88477 5.42404C7.27345 5.67713 6.71801 6.04819 6.25016 6.51604C5.78232 6.98388 5.41125 7.53933 5.15817 8.15064C4.90509 8.76196 4.77495 9.41715 4.77519 10.0788C4.77495 10.7404 4.90509 11.3956 5.15817 12.0069C5.41125 12.6182 5.78232 13.1737 6.25016 13.6415C6.71801 14.1094 7.27345 14.4804 7.88477 14.7335C8.49608 14.9866 9.15127 15.1167 9.8129 15.1165C10.4745 15.1167 11.1297 14.9866 11.741 14.7335C12.3524 14.4804 12.9078 14.1094 13.3756 13.6415C13.8435 13.1737 14.2146 12.6182 14.4676 12.0069C14.7207 11.3956 14.8509 10.7404 14.8506 10.0788C14.8509 9.41715 14.7207 8.76196 14.4676 8.15064C14.2146 7.53933 13.8435 6.98388 13.3756 6.51604C12.9078 6.04819 12.3524 5.67713 11.741 5.42404C11.1297 5.17096 10.4745 5.04082 9.8129 5.04106ZM9.8129 13.35C8.00465 13.35 6.54173 11.887 6.54173 10.0788C6.54173 8.27053 8.00465 6.80761 9.8129 6.80761C11.6212 6.80761 13.0841 8.27053 13.0841 10.0788C13.0841 11.887 11.6212 13.35 9.8129 13.35ZM16.2313 4.83987C16.231 5.15249 16.1066 5.4522 15.8854 5.67314C15.6643 5.89408 15.3644 6.01818 15.0518 6.01818C14.8972 6.01818 14.7442 5.98774 14.6014 5.92858C14.4585 5.86943 14.3288 5.78273 14.2195 5.67342C14.1102 5.56412 14.0235 5.43436 13.9643 5.29155C13.9052 5.14874 13.8747 4.99568 13.8747 4.8411C13.8747 4.68652 13.9052 4.53346 13.9643 4.39065C14.0235 4.24784 14.1102 4.11808 14.2195 4.00878C14.3288 3.89948 14.4585 3.81277 14.6014 3.75362C14.7442 3.69446 14.8972 3.66402 15.0518 3.66402C15.7002 3.66402 16.2313 4.19153 16.2313 4.83987Z" fill="white"/>
</svg>
