<svg width="18" height="22" viewBox="0 0 18 22" fill="none" xmlns="http://www.w3.org/2000/svg">
<path d="M17 9C17 15.2222 9 20.5556 9 20.5556C9 20.5556 1 15.2222 1 9C1 6.87827 1.84285 4.84344 3.34315 3.34315C4.84344 1.84285 6.87827 1 9 1C11.1217 1 13.1566 1.84285 14.6569 3.34315C16.1571 4.84344 17 6.87827 17 9Z" stroke="#2A2A2A" stroke-width="2" stroke-linecap="round" stroke-linejoin="round"/>
<path d="M8.9987 11.6666C10.4715 11.6666 11.6654 10.4727 11.6654 8.99992C11.6654 7.52716 10.4715 6.33325 8.9987 6.33325C7.52594 6.33325 6.33203 7.52716 6.33203 8.99992C6.33203 10.4727 7.52594 11.6666 8.9987 11.6666Z" stroke="#2A2A2A" stroke-width="2" stroke-linecap="round" stroke-linejoin="round"/>
</svg>
