<svg width="22" height="36" viewBox="0 0 22 36" fill="none" xmlns="http://www.w3.org/2000/svg">
<path d="M21.4355 1.30469L21.4355 34.696L11.0008 24.2612L0.565983 34.696L0.565985 1.30469L21.4355 1.30469Z" fill="#FF7B42"/>
<path d="M21.4355 1.30469L21.9355 1.30469C21.9355 1.02855 21.7117 0.804688 21.4355 0.804688L21.4355 1.30469ZM21.4355 34.696L21.082 35.0495C21.225 35.1925 21.44 35.2353 21.6269 35.1579C21.8137 35.0805 21.9355 34.8982 21.9355 34.696L21.4355 34.696ZM0.565983 34.696L0.0659833 34.696C0.0659833 34.8982 0.187804 35.0805 0.374642 35.1579C0.561478 35.2353 0.776537 35.1925 0.919537 35.0495L0.565983 34.696ZM0.565985 1.30469L0.565985 0.804687C0.289843 0.804687 0.0659847 1.02854 0.0659847 1.30469L0.565985 1.30469ZM11.0008 24.2612L11.3543 23.9077C11.2605 23.8139 11.1334 23.7612 11.0008 23.7612C10.8682 23.7612 10.741 23.8139 10.6472 23.9077L11.0008 24.2612ZM20.9355 1.30469L20.9355 34.696L21.9355 34.696L21.9355 1.30469L20.9355 1.30469ZM1.06598 34.696L1.06598 1.30469L0.0659847 1.30469L0.0659833 34.696L1.06598 34.696ZM0.565985 1.80469L21.4355 1.80469L21.4355 0.804688L0.565985 0.804687L0.565985 1.80469ZM21.7891 34.3424L11.3543 23.9077L10.6472 24.6148L21.082 35.0495L21.7891 34.3424ZM10.6472 23.9077L0.21243 34.3424L0.919537 35.0495L11.3543 24.6148L10.6472 23.9077Z" fill="#FF7B42"/>
</svg>
