<svg width="16" height="15" viewBox="0 0 16 15" fill="none" xmlns="http://www.w3.org/2000/svg">
<path d="M15.4787 6.0625C15.4787 5.79464 15.193 5.6875 14.9787 5.65178L10.4965 5L8.48759 0.937499C8.40724 0.767857 8.25545 0.571428 8.05009 0.571428C7.84474 0.571428 7.69295 0.767857 7.61259 0.937499L5.60367 5L1.12152 5.65178C0.898309 5.6875 0.621523 5.79464 0.621523 6.0625C0.621523 6.22321 0.737594 6.375 0.844737 6.49107L4.09474 9.65179L3.32688 14.1161C3.31795 14.1786 3.30902 14.2321 3.30902 14.2946C3.30902 14.5268 3.42509 14.7411 3.68402 14.7411C3.80902 14.7411 3.92509 14.6964 4.04117 14.6339L8.05009 12.5268L12.059 14.6339C12.1662 14.6964 12.2912 14.7411 12.4162 14.7411C12.6751 14.7411 12.7822 14.5268 12.7822 14.2946C12.7822 14.2321 12.7822 14.1786 12.7733 14.1161L12.0055 9.65179L15.2465 6.49107C15.3626 6.375 15.4787 6.22321 15.4787 6.0625Z" fill="#C4C4C4"/>
</svg>
