<svg width="20" height="16" viewBox="0 0 20 16" fill="none" xmlns="http://www.w3.org/2000/svg">
<g clip-path="url(#clip0_5227_60)">
<path d="M19.9981 1.89525C19.4411 2.71111 18.7578 3.40659 17.9482 3.9817C17.9562 4.13594 17.9602 4.31027 17.9602 4.50469C17.9602 5.58493 17.8003 6.66649 17.4805 7.74934C17.1606 8.83221 16.6721 9.86871 16.0148 10.8588C15.3575 11.849 14.5746 12.7261 13.666 13.4903C12.7574 14.2545 11.6653 14.8639 10.3895 15.3183C9.11376 15.7728 7.74651 16 6.28775 16C4.0111 16 1.91453 15.3947 -0.00195312 14.1841C0.338201 14.2214 0.664437 14.24 0.976755 14.24C2.87871 14.24 4.57746 13.6631 6.073 12.5092C5.1862 12.4932 4.39201 12.2244 3.69042 11.7027C2.98883 11.181 2.50601 10.5144 2.24197 9.70286C2.50296 9.75182 2.76055 9.7763 3.01474 9.7763C3.38063 9.7763 3.74065 9.72931 4.09482 9.63531C3.14844 9.44864 2.36334 8.98443 1.73952 8.24267C1.11572 7.50092 0.803814 6.6448 0.803814 5.6743V5.62429C1.3847 5.94104 2.00432 6.10954 2.66265 6.12976C2.10202 5.76167 1.65753 5.28168 1.32917 4.68978C1.00079 4.09787 0.836599 3.45733 0.836599 2.76814C0.836599 2.04129 1.02154 1.36444 1.39143 0.737616C2.42059 1.98142 3.66765 2.97551 5.13259 3.71989C6.59755 4.46427 8.16917 4.87768 9.84745 4.96011C9.77587 4.66632 9.74001 4.35973 9.73988 4.04035C9.73988 2.92519 10.1406 1.97301 10.942 1.18381C11.7434 0.394603 12.7103 0 13.8426 0C15.0281 0 16.0267 0.425125 16.8383 1.27538C17.7656 1.09448 18.6339 0.767285 19.4431 0.293792C19.1314 1.26009 18.5306 2.00551 17.6409 2.53008C18.4586 2.43438 19.2444 2.22277 19.998 1.89525H19.9981Z" fill="white"/>
</g>
<defs>
<clipPath id="clip0_5227_60">
<rect width="20" height="16" fill="white"/>
</clipPath>
</defs>
</svg>
