<svg width="56" height="56" viewBox="0 0 56 56" fill="none" xmlns="http://www.w3.org/2000/svg">
<path d="M49.5334 45.8596C52.4077 42.4042 54.4068 38.3079 55.3616 33.9173C56.3164 29.5266 56.1987 24.9708 55.0187 20.6352C53.8386 16.2995 51.6308 12.3117 48.582 9.00891C45.5332 5.70616 41.7332 3.18568 37.5033 1.66071C33.2735 0.135728 28.7382 -0.348891 24.2813 0.247846C19.8243 0.844582 15.5768 2.50512 11.8979 5.08898C8.2191 7.67285 5.21722 11.104 3.14623 15.0923C1.07524 19.0805 -0.00392799 23.5084 1.0743e-05 28.0015C0.00152217 34.5332 2.30515 40.8557 6.50666 45.8596L6.46663 45.8936C6.60673 46.0616 6.76684 46.2056 6.91095 46.3716C7.09108 46.5776 7.28521 46.7715 7.47135 46.9715C8.03175 47.5795 8.60816 48.1634 9.21259 48.7113C9.39672 48.8793 9.58686 49.0353 9.77299 49.1953C10.4134 49.7472 11.0719 50.2712 11.7544 50.7591C11.8425 50.8191 11.9225 50.8971 12.0106 50.9591V50.9351C16.6981 54.2311 22.2901 56 28.022 56C33.7539 56 39.3459 54.2311 44.0335 50.9351V50.9591C44.1215 50.8971 44.1996 50.8191 44.2896 50.7591C44.9701 50.2692 45.6306 49.7472 46.2711 49.1953C46.4572 49.0353 46.6473 48.8773 46.8315 48.7113C47.4359 48.1614 48.0123 47.5795 48.5727 46.9715C48.7588 46.7715 48.951 46.5776 49.1331 46.3716C49.2752 46.2056 49.4373 46.0616 49.5774 45.8916L49.5334 45.8596ZM28.02 12.0032C29.8013 12.0032 31.5426 12.531 33.0237 13.5198C34.5048 14.5087 35.6592 15.9141 36.3409 17.5585C37.0226 19.2029 37.2009 21.0123 36.8534 22.7579C36.5059 24.5036 35.6481 26.107 34.3885 27.3656C33.129 28.6241 31.5242 29.4812 29.7771 29.8284C28.03 30.1756 26.2191 29.9974 24.5734 29.3163C22.9277 28.6352 21.5211 27.4818 20.5314 26.0019C19.5418 24.522 19.0136 22.7821 19.0136 21.0023C19.0136 18.6156 19.9625 16.3266 21.6515 14.639C23.3405 12.9513 25.6314 12.0032 28.02 12.0032ZM12.0226 45.8596C12.0573 43.2339 13.1253 40.7273 14.9954 38.8823C16.8656 37.0372 19.3876 36.002 22.0157 36.0007H34.0243C36.6525 36.002 39.1745 37.0372 41.0446 38.8823C42.9148 40.7273 43.9827 43.2339 44.0174 45.8596C39.628 49.8119 33.9288 51.9991 28.02 51.9991C22.1113 51.9991 16.4121 49.8119 12.0226 45.8596Z" fill="#C4C4C4"/>
</svg>
